<svg xmlns="http://www.w3.org/2000/svg" viewBox="0 0 71.08 71.08"><defs><style>.cls-1{isolation:isolate;}.cls-2{fill:#00b188;}.cls-3{mix-blend-mode:multiply;}.cls-4{fill:#191919;}</style></defs><title>Checked</title><g class="cls-1"><g id="Layer_2" data-name="Layer 2"><g id="Layer_2-2" data-name="Layer 2"><path class="cls-2" d="M66.78,71.08H4.3A4.31,4.31,0,0,1,0,66.78V4.3A4.31,4.31,0,0,1,4.3,0H66.78a4.31,4.31,0,0,1,4.3,4.3V66.78A4.31,4.31,0,0,1,66.78,71.08ZM5,66.08H66.08V5H5Z"/><g class="cls-3"><path class="cls-4" d="M30.43,50.48h0a3.09,3.09,0,0,1-2.21-1L15.43,36a3.06,3.06,0,1,1,4.45-4.21L30.46,43,51.22,21.53a3.07,3.07,0,1,1,4.4,4.27l-23,23.74A3.06,3.06,0,0,1,30.43,50.48Z"/></g></g></g></g></svg>