<svg xmlns="http://www.w3.org/2000/svg" viewBox="0 0 13.08 14.86"><defs><style>.cls-1{fill:#00b188;}.cls-2{fill:#333;}</style></defs><title>Copy Green</title><g id="Layer_2" data-name="Layer 2"><g id="BG"><path class="cls-1" d="M8.65,14.86H2.21A2.21,2.21,0,0,1,0,12.65V2.39A2.21,2.21,0,0,1,2.21.18H7.66l3.2,3.19v9.28A2.21,2.21,0,0,1,8.65,14.86ZM2.21,1.18A1.21,1.21,0,0,0,1,2.39V12.65a1.21,1.21,0,0,0,1.21,1.21H8.65a1.21,1.21,0,0,0,1.21-1.21V3.78L7.25,1.18Z"/><path class="cls-1" d="M10.87,14.86a.5.5,0,0,1,0-1,1.21,1.21,0,0,0,1.21-1.21V3.18L9.74.86a.5.5,0,1,1,.71-.71l2.63,2.62v9.88A2.21,2.21,0,0,1,10.87,14.86Z"/><path class="cls-2" d="M7.79,4.92H2.63a.54.54,0,1,1,0-1.08H7.79a.54.54,0,1,1,0,1.08Z"/><path class="cls-2" d="M7.79,7.11H2.63A.54.54,0,1,1,2.63,6H7.79a.54.54,0,1,1,0,1.08Z"/></g></g></svg>