<svg xmlns="http://www.w3.org/2000/svg" viewBox="0 0 15.23 15.26"><defs><style>.cls-1{fill:#00b188;}.cls-2{fill:#333;}</style></defs><title>Delete Green</title><g id="Layer_2" data-name="Layer 2"><g id="BG"><path class="cls-1" d="M14.54,2.18H10.27V1.84A1.84,1.84,0,0,0,8.44,0H6.79A1.84,1.84,0,0,0,5,1.84v.34H.69a.69.69,0,0,0,0,1.38H2.05l0,8.72a3,3,0,0,0,3,3h5.12a3,3,0,0,0,3-3l0-8.72h1.37a.69.69,0,0,0,0-1.38ZM6.33,1.84a.46.46,0,0,1,.46-.46H8.44a.46.46,0,0,1,.46.46v.34H6.33Zm5.45,10.43a1.61,1.61,0,0,1-1.61,1.61H5.05a1.61,1.61,0,0,1-1.61-1.61l0-8.72H11.8Z"/><path class="cls-2" d="M6.24,5.68a.69.69,0,0,0-.69.69v4.57a.69.69,0,1,0,1.38,0V6.37A.69.69,0,0,0,6.24,5.68Z"/><path class="cls-2" d="M9,5.68a.69.69,0,0,0-.69.69v4.57a.69.69,0,1,0,1.38,0V6.37A.69.69,0,0,0,9,5.68Z"/></g></g></svg>