<svg xmlns="http://www.w3.org/2000/svg" viewBox="0 0 28.43 27.96"><defs><style>.cls-1{fill:#00b188;}.cls-2{fill:#333;}</style></defs><title>Import Icon</title><g id="Layer_2" data-name="Layer 2"><g id="Layer_1-2" data-name="Layer 1"><path class="cls-1" d="M24.27,13.94H19v2h5.32a2.16,2.16,0,0,1,2.16,2.16v5.56a2.3,2.3,0,0,1-2.3,2.3H4.3A2.3,2.3,0,0,1,2,23.66V18.1a2.16,2.16,0,0,1,2.16-2.16H8.61v-2H4.16A4.16,4.16,0,0,0,0,18.1v5.56A4.31,4.31,0,0,0,4.3,28H24.13a4.31,4.31,0,0,0,4.3-4.3V18.1A4.16,4.16,0,0,0,24.27,13.94Z"/><polygon class="cls-1" points="20.61 10.43 19.19 9.02 15.54 12.67 15.54 0 13.54 0 13.54 12.97 9.58 9.02 8.17 10.43 14.39 16.65 20.61 10.43"/><rect class="cls-2" x="4.87" y="19.95" width="19.33" height="2"/></g></g></svg>